<?xml version="1.0" encoding="utf-8"?>
<svg version="1.1" xmlns:xlink="http://www.w3.org/1999/xlink" width="29px" height="28px" xmlns="http://www.w3.org/2000/svg">
  <g transform="matrix(1 0 0 1 -1883 -74 )">
    <path d="M 28.7094188376754 12.8695652173913  C 28.9031396125585 13.0628019323671  29 13.2850241545894  29 13.536231884058  C 29 13.7874396135266  28.9031396125585 14.0096618357488  28.7094188376754 14.2028985507246  L 15.1683366733467 27.7101449275362  C 14.9746158984636 27.9033816425121  14.751837007348 28  14.5 28  C 14.248162992652 28  14.0253841015364 27.9033816425121  13.8316633266533 27.7101449275362  L 0.290581162324649 14.2028985507246  C 0.0968603874415501 14.0096618357488  0 13.7874396135266  0 13.536231884058  C 0 13.2850241545894  0.0968603874415501 13.0628019323671  0.290581162324649 12.8695652173913  L 1.7434869739479 11.4202898550725  C 1.937207748831 11.2270531400966  2.15998663994656 11.1304347826087  2.41182364729459 11.1304347826087  C 2.66366065464262 11.1304347826087  2.88643954575818 11.2270531400966  3.08016032064128 11.4202898550725  L 14.5 22.8115942028986  L 25.9198396793587 11.4202898550725  C 26.1135604542418 11.2270531400966  26.3363393453574 11.1304347826087  26.5881763527054 11.1304347826087  C 26.8400133600534 11.1304347826087  27.062792251169 11.2270531400966  27.2565130260521 11.4202898550725  L 28.7094188376754 12.8695652173913  Z M 28.7094188376754 1.73913043478261  C 28.9031396125585 1.93236714975845  29 2.15458937198067  29 2.40579710144928  C 29 2.65700483091787  28.9031396125585 2.87922705314009  28.7094188376754 3.07246376811594  L 15.1683366733467 16.5797101449275  C 14.9746158984636 16.7729468599034  14.751837007348 16.8695652173913  14.5 16.8695652173913  C 14.248162992652 16.8695652173913  14.0253841015364 16.7729468599034  13.8316633266533 16.5797101449275  L 0.290581162324649 3.07246376811594  C 0.0968603874415501 2.87922705314009  0 2.65700483091787  0 2.40579710144928  C 0 2.15458937198067  0.0968603874415501 1.93236714975845  0.290581162324649 1.73913043478261  L 1.7434869739479 0.289855072463768  C 1.937207748831 0.0966183574879205  2.15998663994656 0  2.41182364729459 0  C 2.66366065464262 0  2.88643954575818 0.0966183574879205  3.08016032064128 0.289855072463768  L 14.5 11.6811594202899  L 25.9198396793587 0.289855072463768  C 26.1135604542418 0.0966183574879205  26.3363393453574 0  26.5881763527054 0  C 26.8400133600534 0  27.062792251169 0.0966183574879205  27.2565130260521 0.289855072463768  L 28.7094188376754 1.73913043478261  Z " fill-rule="nonzero" fill="#7f7f7f" stroke="none" transform="matrix(1 0 0 1 1883 74 )" />
  </g>
</svg>